<svg width="100" height="26" viewBox="0 0 100 26" fill="none" xmlns="http://www.w3.org/2000/svg">
<path d="M71.554 10.7853V13.0763H70.118V14.5788H71.554V19.6838C71.554 21.4269 72.3426 22.1242 74.3265 22.1242C74.6751 22.1242 75.0071 22.0827 75.2977 22.0329V20.5471C75.0486 20.572 74.8909 20.5886 74.617 20.5886C73.7288 20.5886 73.3387 20.1735 73.3387 19.2272V14.5788H75.2977V13.0763H73.3387V10.7853H71.554Z" fill="#374151"/>
<path d="M80.3515 22.2487C82.9912 22.2487 84.6098 20.4806 84.6098 17.5505C84.6098 14.6369 82.9829 12.8605 80.3515 12.8605C77.7119 12.8605 76.0849 14.6369 76.0849 17.5505C76.0849 20.4806 77.7036 22.2487 80.3515 22.2487ZM80.3515 20.6633C78.7993 20.6633 77.9277 19.5261 77.9277 17.5505C77.9277 15.5915 78.7993 14.446 80.3515 14.446C81.8955 14.446 82.7753 15.5915 82.7753 17.5505C82.7753 19.5178 81.8955 20.6633 80.3515 20.6633Z" fill="#374151"/>
<path d="M85.9947 22.0744H87.7794V16.737C87.7794 15.467 88.734 14.612 90.087 14.612C90.4024 14.612 90.9337 14.6701 91.0831 14.7199V12.9601C90.8922 12.9103 90.5518 12.8854 90.2862 12.8854C89.1075 12.8854 88.1031 13.5329 87.8458 14.4211H87.713V13.0348H85.9947V22.0744Z" fill="#374151"/>
<path d="M95.5144 14.3796C96.8342 14.3796 97.6975 15.301 97.739 16.7204H93.1736C93.2732 15.3093 94.1945 14.3796 95.5144 14.3796ZM97.7307 19.634C97.3987 20.3395 96.6599 20.7297 95.5808 20.7297C94.153 20.7297 93.2317 19.7253 93.1736 18.1398V18.0402H99.5569V17.4177C99.5569 14.5788 98.0378 12.8605 95.5227 12.8605C92.9743 12.8605 91.3557 14.695 91.3557 17.5837C91.3557 20.4723 92.9411 22.2487 95.531 22.2487C97.5979 22.2487 99.0422 21.2526 99.4489 19.634H97.7307Z" fill="#374151"/>
<path d="M59.8504 18.7362C59.9881 20.9559 61.8378 22.3755 64.591 22.3755C67.5334 22.3755 69.3745 20.8871 69.3745 18.5125C69.3745 16.6456 68.3249 15.6132 65.7782 15.0195L64.4103 14.684C62.7928 14.3054 62.139 13.7978 62.139 12.9117C62.139 11.7932 63.1542 11.0619 64.677 11.0619C66.1224 11.0619 67.1204 11.776 67.3011 12.9203H69.1766C69.0648 10.8296 67.2236 9.3584 64.7028 9.3584C61.9927 9.3584 60.186 10.8296 60.186 13.0407C60.186 14.8646 61.2098 15.9487 63.4553 16.4735L65.0555 16.8607C66.6988 17.2478 67.4215 17.8157 67.4215 18.762C67.4215 19.8633 66.2859 20.6634 64.7372 20.6634C63.0767 20.6634 61.9239 19.9149 61.7604 18.7362H59.8504Z" fill="#374151"/>
<path d="M41.3631 12.8854C40.1346 12.8854 39.0721 13.4997 38.5242 14.529H38.3914V13.0348H36.6731V25.0793H38.4578V20.7048H38.5989C39.0721 21.6594 40.0931 22.2238 41.3797 22.2238C43.6624 22.2238 45.115 20.4225 45.115 17.5505C45.115 14.6784 43.6624 12.8854 41.3631 12.8854ZM40.8567 20.6218C39.3626 20.6218 38.4246 19.443 38.4246 17.5588C38.4246 15.6662 39.3626 14.4875 40.865 14.4875C42.3758 14.4875 43.2806 15.6413 43.2806 17.5505C43.2806 19.4679 42.3758 20.6218 40.8567 20.6218Z" fill="#374151"/>
<path d="M51.3599 12.8854C50.1314 12.8854 49.0689 13.4997 48.521 14.529H48.3882V13.0348H46.6699V25.0793H48.4546V20.7048H48.5957C49.0689 21.6594 50.0899 22.2238 51.3765 22.2238C53.6592 22.2238 55.1118 20.4225 55.1118 17.5505C55.1118 14.6784 53.6592 12.8854 51.3599 12.8854ZM50.8535 20.6218C49.3594 20.6218 48.4214 19.443 48.4214 17.5588C48.4214 15.6662 49.3594 14.4875 50.8618 14.4875C52.3726 14.4875 53.2774 15.6413 53.2774 17.5505C53.2774 19.4679 52.3726 20.6218 50.8535 20.6218Z" fill="#374151"/>
<path d="M33.4711 22.0744H35.5188L31.0363 9.65952H28.9629L24.4805 22.0744H26.4593L27.6035 18.7792H32.3355L33.4711 22.0744ZM29.9007 11.9136H30.0469L31.8451 17.1618H28.0939L29.9007 11.9136Z" fill="#374151"/>
<path d="M25.6797 0.294678V6.28369H27.842C29.6267 6.28369 30.6602 5.18384 30.6602 3.27051C30.6602 1.38623 29.6184 0.294678 27.842 0.294678H25.6797ZM26.6094 1.14136H27.7383C28.9792 1.14136 29.7139 1.92993 29.7139 3.28296C29.7139 4.65674 28.9917 5.43701 27.7383 5.43701H26.6094V1.14136Z" fill="#374151"/>
<path d="M33.8252 6.37085C35.1451 6.37085 35.9544 5.48682 35.9544 4.02173C35.9544 2.56494 35.1409 1.67676 33.8252 1.67676C32.5054 1.67676 31.6919 2.56494 31.6919 4.02173C31.6919 5.48682 32.5013 6.37085 33.8252 6.37085ZM33.8252 5.57812C33.0491 5.57812 32.6133 5.00952 32.6133 4.02173C32.6133 3.04224 33.0491 2.46948 33.8252 2.46948C34.5972 2.46948 35.0372 3.04224 35.0372 4.02173C35.0372 5.00537 34.5972 5.57812 33.8252 5.57812Z" fill="#374151"/>
<path d="M42.8465 1.76392H41.9542L41.149 5.21289H41.0785L40.1488 1.76392H39.2938L38.3641 5.21289H38.2977L37.4884 1.76392H36.5836L37.8287 6.28369H38.7459L39.6756 2.95508H39.7462L40.68 6.28369H41.6056L42.8465 1.76392Z" fill="#374151"/>
<path d="M43.8742 6.28369H44.7665V3.63989C44.7665 2.93433 45.1857 2.49438 45.8456 2.49438C46.5055 2.49438 46.8209 2.85547 46.8209 3.58179V6.28369H47.7133V3.35767C47.7133 2.28271 47.1571 1.67676 46.1486 1.67676C45.4679 1.67676 45.0197 1.97974 44.7997 2.48193H44.7333V1.76392H43.8742V6.28369Z" fill="#374151"/>
<path d="M49.1186 6.28369H50.0109V0H49.1186V6.28369Z" fill="#374151"/>
<path d="M53.3669 6.37085C54.6868 6.37085 55.4961 5.48682 55.4961 4.02173C55.4961 2.56494 54.6826 1.67676 53.3669 1.67676C52.0471 1.67676 51.2336 2.56494 51.2336 4.02173C51.2336 5.48682 52.043 6.37085 53.3669 6.37085ZM53.3669 5.57812C52.5908 5.57812 52.155 5.00952 52.155 4.02173C52.155 3.04224 52.5908 2.46948 53.3669 2.46948C54.1389 2.46948 54.5789 3.04224 54.5789 4.02173C54.5789 5.00537 54.1389 5.57812 53.3669 5.57812Z" fill="#374151"/>
<path d="M58.1548 5.60718C57.6692 5.60718 57.3165 5.37061 57.3165 4.96387C57.3165 4.56543 57.5987 4.35376 58.2212 4.31226L59.3252 4.2417V4.61938C59.3252 5.17969 58.8272 5.60718 58.1548 5.60718ZM57.9266 6.3584C58.5201 6.3584 59.014 6.10107 59.2837 5.64868H59.3543V6.28369H60.2134V3.1958C60.2134 2.24121 59.5743 1.67676 58.4412 1.67676C57.4161 1.67676 56.6856 2.1748 56.5943 2.95093H57.4576C57.5572 2.63135 57.9017 2.44873 58.3997 2.44873C59.0098 2.44873 59.3252 2.71851 59.3252 3.1958V3.58594L58.1009 3.65649C57.0259 3.7229 56.42 4.19189 56.42 5.00537C56.42 5.8313 57.055 6.3584 57.9266 6.3584Z" fill="#374151"/>
<path d="M63.2416 6.3584C63.8641 6.3584 64.3912 6.06372 64.661 5.56982H64.7315V6.28369H65.5865V0H64.6942V2.48193H64.6278C64.3829 1.98389 63.86 1.68921 63.2416 1.68921C62.1002 1.68921 61.3656 2.59399 61.3656 4.02173C61.3656 5.45361 62.0919 6.3584 63.2416 6.3584ZM63.4947 2.49023C64.2418 2.49023 64.7108 3.08374 64.7108 4.02588C64.7108 4.97217 64.2459 5.55737 63.4947 5.55737C62.7394 5.55737 62.287 4.98047 62.287 4.02173C62.287 3.07129 62.7435 2.49023 63.4947 2.49023Z" fill="#374151"/>
<path d="M71.373 6.37085C72.6928 6.37085 73.5021 5.48682 73.5021 4.02173C73.5021 2.56494 72.6887 1.67676 71.373 1.67676C70.0532 1.67676 69.2397 2.56494 69.2397 4.02173C69.2397 5.48682 70.049 6.37085 71.373 6.37085ZM71.373 5.57812C70.5969 5.57812 70.1611 5.00952 70.1611 4.02173C70.1611 3.04224 70.5969 2.46948 71.373 2.46948C72.145 2.46948 72.5849 3.04224 72.5849 4.02173C72.5849 5.00537 72.145 5.57812 71.373 5.57812Z" fill="#374151"/>
<path d="M74.6833 6.28369H75.5757V3.63989C75.5757 2.93433 75.9949 2.49438 76.6548 2.49438C77.3147 2.49438 77.6301 2.85547 77.6301 3.58179V6.28369H78.5225V3.35767C78.5225 2.28271 77.9663 1.67676 76.9578 1.67676C76.2771 1.67676 75.8289 1.97974 75.6089 2.48193H75.5425V1.76392H74.6833V6.28369Z" fill="#374151"/>
<path d="M82.6322 0.63916V1.78467H81.9142V2.53589H82.6322V5.08838C82.6322 5.95996 83.0265 6.30859 84.0184 6.30859C84.1927 6.30859 84.3587 6.28784 84.504 6.26294V5.52002C84.3795 5.53247 84.3006 5.54077 84.1637 5.54077C83.7196 5.54077 83.5245 5.33325 83.5245 4.86011V2.53589H84.504V1.78467H83.5245V0.63916H82.6322Z" fill="#374151"/>
<path d="M85.7018 6.28369H86.5941V3.64404C86.5941 2.95923 87.0009 2.49854 87.7313 2.49854C88.3622 2.49854 88.6984 2.86377 88.6984 3.58594V6.28369H89.5907V3.36597C89.5907 2.29102 88.9972 1.68091 88.0343 1.68091C87.3537 1.68091 86.8764 1.98389 86.6564 2.49023H86.5858V0H85.7018V6.28369Z" fill="#374151"/>
<path d="M92.8098 2.43628C93.4697 2.43628 93.9013 2.89697 93.9221 3.60669H91.6394C91.6892 2.90112 92.1498 2.43628 92.8098 2.43628ZM93.9179 5.06348C93.7519 5.41626 93.3825 5.61133 92.843 5.61133C92.1291 5.61133 91.6684 5.10913 91.6394 4.31641V4.2666H94.831V3.95532C94.831 2.53589 94.0715 1.67676 92.8139 1.67676C91.5397 1.67676 90.7304 2.59399 90.7304 4.03833C90.7304 5.48267 91.5231 6.37085 92.8181 6.37085C93.8515 6.37085 94.5737 5.8728 94.777 5.06348H93.9179Z" fill="#374151"/>
<path d="M14.7973 11.885C14.819 10.204 15.7217 8.61345 17.1539 7.73299C16.2504 6.44267 14.7371 5.62457 13.1627 5.57531C11.4835 5.39905 9.85552 6.58014 8.99981 6.58014C8.12754 6.58014 6.81004 5.59281 5.39131 5.622C3.54206 5.68174 1.81809 6.73313 0.918393 8.34986C-1.01561 11.6983 0.426982 16.6193 2.27959 19.3259C3.20649 20.6513 4.28977 22.1317 5.70722 22.0792C7.09428 22.0217 7.61232 21.1948 9.28662 21.1948C10.9454 21.1948 11.4314 22.0792 12.8776 22.0459C14.366 22.0217 15.3038 20.7146 16.1981 19.3767C16.8641 18.4324 17.3766 17.3886 17.7166 16.2842C15.9674 15.5444 14.7994 13.7842 14.7973 11.885Z" fill="black"/>
<path d="M12.0656 3.79531C12.8772 2.8211 13.277 1.56892 13.1802 0.304688C11.9403 0.434908 10.7951 1.02747 9.97259 1.9643C9.1683 2.87963 8.74975 4.10978 8.82888 5.32569C10.0692 5.33846 11.2885 4.76196 12.0656 3.79531Z" fill="black"/>
</svg>
