<svg width="116" height="28" viewBox="0 0 116 28" fill="none" xmlns="http://www.w3.org/2000/svg">
<path d="M58.1624 14.9857C55.8104 14.9857 53.8934 16.7747 53.8934 19.2387C53.8934 21.6877 55.8104 23.4917 58.1624 23.4917C60.5154 23.4917 62.4324 21.6877 62.4324 19.2387C62.4314 16.7747 60.5144 14.9857 58.1624 14.9857ZM58.1624 21.8177C56.8734 21.8177 55.7624 20.7547 55.7624 19.2397C55.7624 17.7087 56.8744 16.6617 58.1624 16.6617C59.4514 16.6617 60.5624 17.7087 60.5624 19.2397C60.5624 20.7537 59.4514 21.8177 58.1624 21.8177ZM48.8484 14.9857C46.4964 14.9857 44.5794 16.7747 44.5794 19.2387C44.5794 21.6877 46.4964 23.4917 48.8484 23.4917C51.2014 23.4917 53.1184 21.6877 53.1184 19.2387C53.1184 16.7747 51.2014 14.9857 48.8484 14.9857ZM48.8484 21.8177C47.5594 21.8177 46.4484 20.7547 46.4484 19.2397C46.4484 17.7087 47.5604 16.6617 48.8484 16.6617C50.1374 16.6617 51.2484 17.7087 51.2484 19.2397C51.2494 20.7537 50.1374 21.8177 48.8484 21.8177ZM37.7704 16.2917V18.0957H42.0884C41.9594 19.1107 41.6214 19.8517 41.1054 20.3667C40.4774 20.9947 39.4944 21.6877 37.7704 21.6877C35.1124 21.6877 33.0344 19.5447 33.0344 16.8867C33.0344 14.2287 35.1124 12.0857 37.7704 12.0857C39.2044 12.0857 40.2514 12.6497 41.0244 13.3747L42.2974 12.1017C41.2174 11.0707 39.7844 10.2817 37.7704 10.2817C34.1294 10.2817 31.0684 13.2457 31.0684 16.8867C31.0684 20.5277 34.1294 23.4917 37.7704 23.4917C39.7354 23.4917 41.2184 22.8467 42.3774 21.6387C43.5694 20.4467 43.9404 18.7707 43.9404 17.4177C43.9404 16.9997 43.9084 16.6127 43.8434 16.2907H37.7704V16.2917ZM83.0784 17.6927C82.7244 16.7427 81.6444 14.9857 79.4374 14.9857C77.2464 14.9857 75.4254 16.7097 75.4254 19.2387C75.4254 21.6227 77.2304 23.4917 79.6464 23.4917C81.5954 23.4917 82.7234 22.2997 83.1914 21.6067L81.7414 20.6397C81.2584 21.3487 80.5974 21.8157 79.6464 21.8157C78.6964 21.8157 78.0194 21.3807 77.5844 20.5267L83.2714 18.1747L83.0784 17.6927ZM77.2784 19.1107C77.2304 17.4667 78.5514 16.6297 79.5024 16.6297C80.2434 16.6297 80.8714 17.0007 81.0814 17.5317L77.2784 19.1107ZM72.6554 23.2347H74.5234V10.7337H72.6554V23.2347ZM69.5934 15.9367H69.5294C69.1104 15.4367 68.3044 14.9857 67.2904 14.9857C65.1634 14.9857 63.2144 16.8547 63.2144 19.2557C63.2144 21.6397 65.1634 23.4927 67.2904 23.4927C68.3054 23.4927 69.1104 23.0417 69.5294 22.5267H69.5934V23.1387C69.5934 24.7657 68.7234 25.6357 67.3224 25.6357C66.1784 25.6357 65.4694 24.8147 65.1794 24.1217L63.5524 24.7987C64.0194 25.9257 65.2594 27.3117 67.3224 27.3117C69.5134 27.3117 71.3664 26.0227 71.3664 22.8807V15.2447H69.5944V15.9367H69.5934ZM67.4514 21.8177C66.1624 21.8177 65.0834 20.7377 65.0834 19.2557C65.0834 17.7567 66.1624 16.6617 67.4514 16.6617C68.7234 16.6617 69.7224 17.7567 69.7224 19.2557C69.7224 20.7377 68.7234 21.8177 67.4514 21.8177ZM91.8324 10.7337H87.3614V23.2347H89.2264V18.4987H91.8314C93.8994 18.4987 95.9334 17.0017 95.9334 14.6167C95.9334 12.2317 93.9004 10.7337 91.8324 10.7337ZM91.8804 16.7587H89.2264V12.4737H91.8804C93.2754 12.4737 94.0674 13.6287 94.0674 14.6167C94.0674 15.5847 93.2754 16.7587 91.8804 16.7587ZM103.412 14.9637C102.061 14.9637 100.662 15.5587 100.083 16.8777L101.739 17.5687C102.093 16.8777 102.753 16.6517 103.444 16.6517C104.409 16.6517 105.39 17.2307 105.406 18.2597V18.3887C105.068 18.1957 104.344 17.9067 103.46 17.9067C101.675 17.9067 99.8574 18.8877 99.8574 20.7207C99.8574 22.3937 101.321 23.4707 102.961 23.4707C104.215 23.4707 104.907 22.9077 105.341 22.2477H105.405V23.2127H107.207V18.4197C107.208 16.2017 105.55 14.9637 103.412 14.9637ZM103.186 21.8147C102.576 21.8147 101.723 21.5087 101.723 20.7527C101.723 19.7877 102.785 19.4177 103.702 19.4177C104.521 19.4177 104.908 19.5947 105.406 19.8357C105.261 20.9947 104.264 21.8147 103.186 21.8147ZM113.769 15.2367L111.63 20.6567H111.566L109.346 15.2367H107.336L110.665 22.8117L108.767 27.0257H110.713L115.844 15.2367H113.769ZM96.9634 23.2347H98.8284V10.7337H96.9634V23.2347Z" fill="#374151"/>
<path d="M37.4444 3.47805C37.4444 4.31605 37.1964 4.98305 36.6994 5.48105C36.1354 6.07305 35.3994 6.36905 34.4954 6.36905C33.6294 6.36905 32.8924 6.06905 32.2874 5.46905C31.6814 4.86805 31.3784 4.12405 31.3784 3.23605C31.3784 2.34705 31.6814 1.60305 32.2874 1.00305C32.8924 0.402051 33.6294 0.102052 34.4954 0.102052C34.9254 0.102052 35.3364 0.186051 35.7264 0.353051C36.1174 0.521051 36.4304 0.744051 36.6644 1.02305L36.1374 1.55105C35.7404 1.07605 35.1934 0.839051 34.4944 0.839051C33.8624 0.839051 33.3164 1.06105 32.8554 1.50505C32.3944 1.94905 32.1644 2.52605 32.1644 3.23505C32.1644 3.94405 32.3944 4.52105 32.8554 4.96505C33.3164 5.40905 33.8624 5.63105 34.4944 5.63105C35.1644 5.63105 35.7234 5.40805 36.1704 4.96105C36.4604 4.67005 36.6284 4.26505 36.6734 3.74605H34.4944V3.02505H37.4014C37.4314 3.18205 37.4444 3.33305 37.4444 3.47805Z" fill="#374151"/>
<path d="M42.0545 0.972107H39.3225V2.87411H41.7865V3.59511H39.3225V5.49711H42.0545V6.23511H38.5515V0.235108H42.0545V0.972107Z" fill="#374151"/>
<path d="M45.3054 6.23511H44.5344V0.972107H42.8584V0.235108H46.9814V0.972107H45.3054V6.23511Z" fill="#374151"/>
<path d="M49.9644 6.23511V0.235108H50.7354V6.23511H49.9644Z" fill="#374151"/>
<path d="M54.1545 6.23511H53.3835V0.972107H51.7075V0.235108H55.8305V0.972107H54.1545V6.23511Z" fill="#374151"/>
<path d="M63.6353 5.4601C63.0453 6.0661 62.3123 6.3691 61.4353 6.3691C60.5583 6.3691 59.8253 6.0661 59.2363 5.4601C58.6463 4.8541 58.3523 4.1121 58.3523 3.2351C58.3523 2.3581 58.6463 1.6161 59.2363 1.0101C59.8253 0.404097 60.5583 0.100098 61.4353 0.100098C62.3073 0.100098 63.0393 0.405097 63.6313 1.0141C64.2233 1.6231 64.5193 2.3631 64.5193 3.2351C64.5193 4.1121 64.2243 4.8541 63.6353 5.4601ZM59.8053 4.9571C60.2493 5.4071 60.7923 5.6311 61.4353 5.6311C62.0783 5.6311 62.6223 5.4061 63.0653 4.9571C63.5093 4.5071 63.7323 3.9331 63.7323 3.2351C63.7323 2.5371 63.5093 1.9631 63.0653 1.5131C62.6223 1.0631 62.0783 0.839098 61.4353 0.839098C60.7923 0.839098 60.2493 1.0641 59.8053 1.5131C59.3623 1.9631 59.1393 2.5371 59.1393 3.2351C59.1393 3.9331 59.3623 4.5071 59.8053 4.9571Z" fill="#374151"/>
<path d="M65.6013 6.23511V0.235108H66.5393L69.4553 4.90211H69.4883L69.4553 3.74611V0.235108H70.2263V6.23511H69.4213L66.3703 1.34111H66.3373L66.3703 2.49711V6.23511H65.6013Z" fill="#374151"/>
<path d="M37.4444 3.47805C37.4444 4.31605 37.1964 4.98305 36.6994 5.48105C36.1354 6.07305 35.3994 6.36905 34.4954 6.36905C33.6294 6.36905 32.8924 6.06905 32.2874 5.46905C31.6814 4.86805 31.3784 4.12405 31.3784 3.23605C31.3784 2.34705 31.6814 1.60305 32.2874 1.00305C32.8924 0.402051 33.6294 0.102052 34.4954 0.102052C34.9254 0.102052 35.3364 0.186051 35.7264 0.353051C36.1174 0.521051 36.4304 0.744051 36.6644 1.02305L36.1374 1.55105C35.7404 1.07605 35.1934 0.839051 34.4944 0.839051C33.8624 0.839051 33.3164 1.06105 32.8554 1.50505C32.3944 1.94905 32.1644 2.52605 32.1644 3.23505C32.1644 3.94405 32.3944 4.52105 32.8554 4.96505C33.3164 5.40905 33.8624 5.63105 34.4944 5.63105C35.1644 5.63105 35.7234 5.40805 36.1704 4.96105C36.4604 4.67005 36.6284 4.26505 36.6734 3.74605H34.4944V3.02505H37.4014C37.4314 3.18205 37.4444 3.33305 37.4444 3.47805Z" stroke="#374151" stroke-width="0.2" stroke-miterlimit="10"/>
<path d="M42.0545 0.972107H39.3225V2.87411H41.7865V3.59511H39.3225V5.49711H42.0545V6.23511H38.5515V0.235108H42.0545V0.972107Z" stroke="#374151" stroke-width="0.2" stroke-miterlimit="10"/>
<path d="M45.3054 6.23511H44.5344V0.972107H42.8584V0.235108H46.9814V0.972107H45.3054V6.23511Z" stroke="#374151" stroke-width="0.2" stroke-miterlimit="10"/>
<path d="M49.9644 6.23511V0.235108H50.7354V6.23511H49.9644Z" stroke="#374151" stroke-width="0.2" stroke-miterlimit="10"/>
<path d="M54.1545 6.23511H53.3835V0.972107H51.7075V0.235108H55.8305V0.972107H54.1545V6.23511Z" stroke="#374151" stroke-width="0.2" stroke-miterlimit="10"/>
<path d="M63.6353 5.4601C63.0453 6.0661 62.3123 6.3691 61.4353 6.3691C60.5583 6.3691 59.8253 6.0661 59.2363 5.4601C58.6463 4.8541 58.3523 4.1121 58.3523 3.2351C58.3523 2.3581 58.6463 1.6161 59.2363 1.0101C59.8253 0.404097 60.5583 0.100098 61.4353 0.100098C62.3073 0.100098 63.0393 0.405097 63.6313 1.0141C64.2233 1.6231 64.5193 2.3631 64.5193 3.2351C64.5193 4.1121 64.2243 4.8541 63.6353 5.4601ZM59.8053 4.9571C60.2493 5.4071 60.7923 5.6311 61.4353 5.6311C62.0783 5.6311 62.6223 5.4061 63.0653 4.9571C63.5093 4.5071 63.7323 3.9331 63.7323 3.2351C63.7323 2.5371 63.5093 1.9631 63.0653 1.5131C62.6223 1.0631 62.0783 0.839098 61.4353 0.839098C60.7923 0.839098 60.2493 1.0641 59.8053 1.5131C59.3623 1.9631 59.1393 2.5371 59.1393 3.2351C59.1393 3.9331 59.3623 4.5071 59.8053 4.9571Z" stroke="#374151" stroke-width="0.2" stroke-miterlimit="10"/>
<path d="M65.6013 6.23511V0.235108H66.5393L69.4553 4.90211H69.4883L69.4553 3.74611V0.235108H70.2263V6.23511H69.4213L66.3703 1.34111H66.3373L66.3703 2.49711V6.23511H65.6013Z" stroke="#374151" stroke-width="0.2" stroke-miterlimit="10"/>
<g filter="url(#filter0_ii_147_306)">
<path d="M0.463001 0.772707C0.172001 1.08071 -4.27246e-07 1.55871 -4.27246e-07 2.17771V24.2937C-4.27246e-07 24.9137 0.172001 25.3907 0.463001 25.6987L0.537 25.7707L12.926 13.3817V13.2357V13.0897L0.537 0.699707L0.463001 0.772707Z" fill="url(#paint0_linear_147_306)"/>
<path d="M17.055 17.5125L12.926 13.3815V13.2355V13.0895L17.056 8.95947L17.149 9.01247L22.042 11.7925C23.439 12.5865 23.439 13.8855 22.042 14.6805L17.149 17.4605L17.055 17.5125Z" fill="url(#paint1_linear_147_306)"/>
<g filter="url(#filter1_i_147_306)">
<path d="M17.149 17.4594L12.925 13.2354L0.463014 25.6984C0.923014 26.1864 1.68401 26.2464 2.54101 25.7604L17.149 17.4594Z" fill="url(#paint2_linear_147_306)"/>
</g>
<path d="M17.149 9.01156L2.54101 0.711563C1.68401 0.224564 0.923014 0.285564 0.463014 0.773564L12.926 13.2366L17.149 9.01156Z" fill="url(#paint3_linear_147_306)"/>
</g>
<defs>
<filter id="filter0_ii_147_306" x="0" y="0.375488" width="23.0897" height="25.7207" filterUnits="userSpaceOnUse" color-interpolation-filters="sRGB">
<feFlood flood-opacity="0" result="BackgroundImageFix"/>
<feBlend mode="normal" in="SourceGraphic" in2="BackgroundImageFix" result="shape"/>
<feColorMatrix in="SourceAlpha" type="matrix" values="0 0 0 0 0 0 0 0 0 0 0 0 0 0 0 0 0 0 127 0" result="hardAlpha"/>
<feOffset dy="-0.15"/>
<feComposite in2="hardAlpha" operator="arithmetic" k2="-1" k3="1"/>
<feColorMatrix type="matrix" values="0 0 0 0 0 0 0 0 0 0 0 0 0 0 0 0 0 0 0.12 0"/>
<feBlend mode="normal" in2="shape" result="effect1_innerShadow_147_306"/>
<feColorMatrix in="SourceAlpha" type="matrix" values="0 0 0 0 0 0 0 0 0 0 0 0 0 0 0 0 0 0 127 0" result="hardAlpha"/>
<feOffset dy="0.15"/>
<feComposite in2="hardAlpha" operator="arithmetic" k2="-1" k3="1"/>
<feColorMatrix type="matrix" values="0 0 0 0 1 0 0 0 0 1 0 0 0 0 1 0 0 0 0.25 0"/>
<feBlend mode="normal" in2="effect1_innerShadow_147_306" result="effect2_innerShadow_147_306"/>
</filter>
<filter id="filter1_i_147_306" x="0.463013" y="13.2354" width="16.686" height="12.8608" filterUnits="userSpaceOnUse" color-interpolation-filters="sRGB">
<feFlood flood-opacity="0" result="BackgroundImageFix"/>
<feBlend mode="normal" in="SourceGraphic" in2="BackgroundImageFix" result="shape"/>
<feColorMatrix in="SourceAlpha" type="matrix" values="0 0 0 0 0 0 0 0 0 0 0 0 0 0 0 0 0 0 127 0" result="hardAlpha"/>
<feOffset dy="-0.15"/>
<feComposite in2="hardAlpha" operator="arithmetic" k2="-1" k3="1"/>
<feColorMatrix type="matrix" values="0 0 0 0 0 0 0 0 0 0 0 0 0 0 0 0 0 0 0.08 0"/>
<feBlend mode="normal" in2="shape" result="effect1_innerShadow_147_306"/>
</filter>
<linearGradient id="paint0_linear_147_306" x1="11.8278" y1="1.94371" x2="-4.9542" y2="18.7257" gradientUnits="userSpaceOnUse">
<stop stop-color="#00A0FF"/>
<stop offset="0.0066" stop-color="#00A1FF"/>
<stop offset="0.2601" stop-color="#00BEFF"/>
<stop offset="0.5122" stop-color="#00D2FF"/>
<stop offset="0.7604" stop-color="#00DFFF"/>
<stop offset="1" stop-color="#00E3FF"/>
</linearGradient>
<linearGradient id="paint1_linear_147_306" x1="23.8605" y1="13.2355" x2="-0.335374" y2="13.2355" gradientUnits="userSpaceOnUse">
<stop stop-color="#FFE000"/>
<stop offset="0.4087" stop-color="#FFBD00"/>
<stop offset="0.7754" stop-color="#FFA500"/>
<stop offset="1" stop-color="#FF9C00"/>
</linearGradient>
<linearGradient id="paint2_linear_147_306" x1="14.8551" y1="15.5293" x2="-7.90338" y2="38.2878" gradientUnits="userSpaceOnUse">
<stop stop-color="#FF3A44"/>
<stop offset="1" stop-color="#C31162"/>
</linearGradient>
<linearGradient id="paint3_linear_147_306" x1="-2.67559" y1="-6.58864" x2="7.48671" y2="3.57366" gradientUnits="userSpaceOnUse">
<stop stop-color="#32A071"/>
<stop offset="0.0685" stop-color="#2DA771"/>
<stop offset="0.4762" stop-color="#15CF74"/>
<stop offset="0.8009" stop-color="#06E775"/>
<stop offset="1" stop-color="#00F076"/>
</linearGradient>
</defs>
</svg>
