<svg width="100" height="100" viewBox="0 0 100 100" fill="none" xmlns="http://www.w3.org/2000/svg">
<path fill-rule="evenodd" clip-rule="evenodd" d="M60.5164 56.3667L60.5666 56.3479C60.554 56.3542 60.5352 56.3604 60.5164 56.3667ZM49.9937 0C77.6072 0 100 22.39 100 50C100 77.61 77.6072 100 49.9937 100C39.9098 100 30.5214 97.0109 22.6623 91.8724C21.6533 91.1893 20.989 90.0363 20.989 88.7267C20.989 87.9308 21.2334 87.1914 21.6596 86.5773L21.6784 86.5585C22.1923 85.5934 22.6874 84.6221 23.1762 83.6383C26.5981 76.67 25.3823 77.3844 23.3204 70.6542C22.1985 66.9946 22.0356 64.5256 19.5287 62.2948C18.9521 61.7621 18.5698 60.9851 19.7669 60.396C23.1261 59.6817 25.1504 63.7611 26.5731 65.7476C27.4004 67.0197 27.9957 66.8066 29.0298 65.8666C31.6871 63.4227 32.2261 55.1072 35.8925 49.4987C36.8075 48.0825 38.4557 48.3269 38.1925 50.5013C37.4655 53.716 36.2622 56.843 36.0178 60.1454C35.8423 61.242 36.6571 61.5929 37.4029 60.3459C38.9007 57.5887 40.4863 55.1949 42.4041 52.776C42.9932 52.0303 43.6137 51.2909 44.2655 50.5264C45.3873 49.5237 47.2362 50.846 46.528 52.2121C44.1527 55.6335 42.542 59.0864 40.549 62.5266L40.4174 63.2159C40.5365 63.4353 40.9125 63.4102 41.3512 63.0029L49.2479 55.3641L49.2793 55.339C50.2632 54.4617 51.6671 55.8842 51.0592 56.8242C50.6831 57.2941 50.3134 57.7641 49.9436 58.2341C47.9569 60.8033 46.1018 63.3977 43.7453 65.8854C43.2314 66.6876 43.833 67.521 44.6979 67.3706C46.8538 66.9319 48.8844 65.8478 51.1406 65.0833C51.6984 64.8953 52.2687 64.7262 52.8579 64.5946C53.7478 64.5632 54.2805 65.7726 53.4971 66.2677L51.4415 67.4897L44.9674 71.3247C42.3853 73.0856 40.2545 76.6449 38.7503 79.8283C44.1025 78.2993 49.5989 77.4157 54.2304 78.1176L71.1833 81.796L76.5668 82.9615C78.6663 83.35 79.6566 80.4675 78.1148 79.1265C76.9115 78.4246 75.6831 77.8168 74.4485 77.2591C69.4472 75.0094 64.3018 73.6621 59.9774 71.0177C58.2853 69.9085 58.5673 67.5586 60.6982 67.0134C68.5761 66.5184 75.7834 65.0395 83.1725 63.8238C84.5325 63.5982 85.8925 63.3851 87.2712 63.1846C89.7719 62.5517 89.6277 57.9521 86.6007 57.8895H86.5067L61.187 58.4033C59.802 58.4096 59.1314 57.8644 59.2755 57.3004L60.5791 56.3417C69.3344 53.6596 77.4756 50.3447 86.8576 48.2955C90.2043 47.1049 89.1514 41.9664 85.6857 41.9038C83.3856 42.1544 81.1732 42.4427 79.011 42.7748C71.9792 43.8589 65.549 45.4067 58.6864 47.719C55.4713 48.659 54.6378 46.7853 56.6558 45.2062C62.2525 40.0113 69.1903 36.6149 75.4575 32.3224C79.3119 29.0701 76.9115 26.0747 73.1449 27.0272C58.1537 30.7495 44.2028 43.9529 35.8799 43.909C32.6648 43.8651 31.3236 43.3012 31.9253 39.8546C32.6335 34.2649 35.623 24.201 28.823 20.1404C25.8774 19.2631 25.3071 21.1743 25.445 22.9665C26.1845 30.668 22.5808 35.0921 18.7328 43.0317C12.5783 55.7213 14.1702 57.9145 3.7102 62.4702C3.55352 62.5078 3.39684 62.5266 3.22763 62.5266C2.30008 62.5266 1.51666 61.925 1.24091 61.0916C0.432432 57.5197 5.2596e-06 53.81 5.2596e-06 49.9937C-0.0125292 22.3963 22.3803 0 49.9937 0ZM20.7508 87.9058C20.7571 87.8807 20.7696 87.8619 20.7759 87.8368C20.7634 87.8619 20.7571 87.8807 20.7508 87.9058ZM20.8386 87.6801C20.8511 87.6613 20.8574 87.6363 20.8699 87.6175C20.8574 87.6363 20.8448 87.6551 20.8386 87.6801ZM20.8762 87.5987C20.895 87.5548 20.92 87.511 20.9451 87.4671C20.9138 87.511 20.895 87.5548 20.8762 87.5987ZM21.0516 87.2854C21.0642 87.2603 21.083 87.2415 21.0955 87.2164C21.0767 87.2415 21.0642 87.2603 21.0516 87.2854ZM21.0955 87.2164C21.1206 87.1851 21.1394 87.1475 21.1645 87.1162C21.1394 87.1475 21.1143 87.1851 21.0955 87.2164ZM21.2083 87.0535C21.2271 87.0347 21.2397 87.0096 21.2585 86.9908C21.2459 87.0096 21.2271 87.0284 21.2083 87.0535ZM40.5427 62.558C40.549 62.5517 40.549 62.5454 40.5553 62.5391L40.5427 62.558Z" fill="#65B741"/>
</svg>
