<svg width="463" height="191" viewBox="0 0 463 191" fill="none" xmlns="http://www.w3.org/2000/svg">
<g filter="url(#filter0_d_8142_110505)">
<path d="M42.687 114.072C40.749 112.848 38.556 111.879 36.108 111.165C33.762 110.451 31.314 109.788 28.764 109.176C26.316 108.564 23.919 107.901 21.573 107.187C19.227 106.371 17.085 105.249 15.147 103.821C10.965 100.659 8.517 96.783 7.803 92.193C7.191 87.501 8.211 82.809 10.863 78.117C12.291 75.669 14.178 73.68 16.524 72.15C18.87 70.518 21.42 69.294 24.174 68.478C27.03 67.56 29.937 67.05 32.895 66.948C35.853 66.846 38.658 66.999 41.31 67.407C43.044 67.713 44.88 68.172 46.818 68.784C48.756 69.294 50.541 70.008 52.173 70.926C53.907 71.844 55.437 73.017 56.763 74.445C58.191 75.771 59.211 77.454 59.823 79.494C60.231 80.82 60.282 82.095 59.976 83.319C59.772 84.543 59.262 85.563 58.446 86.379C57.732 87.195 56.763 87.807 55.539 88.215C54.417 88.623 53.193 88.725 51.867 88.521C50.337 88.215 48.909 87.756 47.583 87.144C46.257 86.532 44.931 85.869 43.605 85.155C42.279 84.441 40.902 83.829 39.474 83.319C38.148 82.809 36.72 82.554 35.19 82.554C32.844 82.452 30.906 82.86 29.376 83.778C27.846 84.696 26.775 85.818 26.163 87.144C25.653 88.47 25.704 89.898 26.316 91.428C27.03 92.958 28.458 94.284 30.6 95.406C32.538 96.426 34.68 97.242 37.026 97.854C39.372 98.466 41.667 99.078 43.911 99.69C46.257 100.302 48.501 101.016 50.643 101.832C52.887 102.648 54.876 103.77 56.61 105.198C59.976 107.952 62.016 111.165 62.73 114.837C63.546 118.509 63.342 122.13 62.118 125.7C60.894 129.27 58.752 132.432 55.692 135.186C52.734 137.94 49.215 139.776 45.135 140.694C42.177 141.306 38.964 141.612 35.496 141.612C32.13 141.612 28.764 141.255 25.398 140.541C22.134 139.827 18.972 138.705 15.912 137.175C12.954 135.645 10.455 133.707 8.415 131.361C6.987 129.729 6.222 127.893 6.12 125.853C6.12 123.711 6.528 121.875 7.344 120.345C8.262 118.713 9.537 117.591 11.169 116.979C12.801 116.367 14.637 116.724 16.677 118.05C18.309 119.172 20.247 120.294 22.491 121.416C24.735 122.436 26.979 123.252 29.223 123.864C31.467 124.476 33.609 124.782 35.649 124.782C37.791 124.782 39.627 124.323 41.157 123.405C43.401 121.977 44.574 120.345 44.676 118.509C44.778 116.571 44.115 115.092 42.687 114.072Z" fill="#E97D71"/>
</g>
<path fill-rule="evenodd" clip-rule="evenodd" d="M154.516 101.867L154.567 101.848C154.554 101.854 154.535 101.86 154.516 101.867ZM143.994 45.5C171.607 45.5 194 67.89 194 95.5C194 123.11 171.607 145.5 143.994 145.5C133.91 145.5 124.521 142.511 116.662 137.372C115.653 136.689 114.989 135.536 114.989 134.227C114.989 133.431 115.233 132.691 115.66 132.077L115.678 132.058C116.192 131.093 116.687 130.122 117.176 129.138C120.598 122.17 119.382 122.884 117.32 116.154C116.199 112.495 116.036 110.026 113.529 107.795C112.952 107.262 112.57 106.485 113.767 105.896C117.126 105.182 119.15 109.261 120.573 111.248C121.4 112.52 121.996 112.307 123.03 111.367C125.687 108.923 126.226 100.607 129.892 94.9987C130.807 93.5825 132.456 93.8269 132.193 96.0013C131.466 99.216 130.262 102.343 130.018 105.645C129.842 106.742 130.657 107.093 131.403 105.846C132.901 103.089 134.486 100.695 136.404 98.276C136.993 97.5303 137.614 96.7909 138.265 96.0264C139.387 95.0237 141.236 96.346 140.528 97.7121C138.153 101.134 136.542 104.586 134.549 108.027L134.417 108.716C134.536 108.935 134.913 108.91 135.351 108.503L143.248 100.864L143.279 100.839C144.263 99.9617 145.667 101.384 145.059 102.324C144.683 102.794 144.313 103.264 143.944 103.734C141.957 106.303 140.102 108.898 137.745 111.385C137.231 112.188 137.833 113.021 138.698 112.871C140.854 112.432 142.884 111.348 145.141 110.583C145.698 110.395 146.269 110.226 146.858 110.095C147.748 110.063 148.281 111.273 147.497 111.768L145.441 112.99L138.967 116.825C136.385 118.586 134.254 122.145 132.75 125.328C138.103 123.799 143.599 122.916 148.23 123.618L165.183 127.296L170.567 128.462C172.666 128.85 173.657 125.967 172.115 124.626C170.912 123.925 169.683 123.317 168.448 122.759C163.447 120.509 158.302 119.162 153.977 116.518C152.285 115.409 152.567 113.059 154.698 112.513C162.576 112.018 169.783 110.539 177.172 109.324C178.532 109.098 179.892 108.885 181.271 108.685C183.772 108.052 183.628 103.452 180.601 103.389H180.507L155.187 103.903C153.802 103.91 153.131 103.364 153.276 102.8L154.579 101.842C163.334 99.1596 171.476 95.8447 180.858 93.7955C184.204 92.6049 183.151 87.4664 179.686 87.4038C177.386 87.6544 175.173 87.9427 173.011 88.2748C165.979 89.3589 159.549 90.9067 152.686 93.219C149.471 94.159 148.638 92.2853 150.656 90.7062C156.252 85.5113 163.19 82.1149 169.458 77.8224C173.312 74.5701 170.912 71.5747 167.145 72.5272C152.154 76.2495 138.203 89.4529 129.88 89.409C126.665 89.3651 125.324 88.8012 125.925 85.3546C126.633 79.7649 129.623 69.701 122.823 65.6404C119.877 64.7631 119.307 66.6743 119.445 68.4665C120.185 76.168 116.581 80.5921 112.733 88.5317C106.578 101.221 108.17 103.415 97.7102 107.97C97.5535 108.008 97.3968 108.027 97.2276 108.027C96.3001 108.027 95.5167 107.425 95.2409 106.592C94.4324 103.02 94 99.31 94 95.4937C93.9875 67.8963 116.38 45.5 143.994 45.5ZM114.751 133.406C114.757 133.381 114.77 133.362 114.776 133.337C114.763 133.362 114.757 133.381 114.751 133.406ZM114.839 133.18C114.851 133.161 114.857 133.136 114.87 133.117C114.857 133.136 114.845 133.155 114.839 133.18ZM114.876 133.099C114.895 133.055 114.92 133.011 114.945 132.967C114.914 133.011 114.895 133.055 114.876 133.099ZM115.052 132.785C115.064 132.76 115.083 132.741 115.096 132.716C115.077 132.741 115.064 132.76 115.052 132.785ZM115.096 132.716C115.121 132.685 115.139 132.648 115.164 132.616C115.139 132.648 115.114 132.685 115.096 132.716ZM115.208 132.553C115.227 132.535 115.24 132.51 115.258 132.491C115.246 132.51 115.227 132.528 115.208 132.553ZM134.543 108.058C134.549 108.052 134.549 108.045 134.555 108.039L134.543 108.058Z" fill="#65B741"/>
<g filter="url(#filter1_d_8142_110505)">
<path d="M266.042 122.64C267.572 122.64 269.255 122.691 271.091 122.793C273.029 122.793 274.865 122.946 276.599 123.252C278.435 123.456 280.067 123.864 281.495 124.476C283.025 125.088 284.096 125.904 284.708 126.924C286.238 129.576 286.697 131.973 286.085 134.115C285.575 136.155 284.453 137.736 282.719 138.858C280.883 140.184 278.741 141.051 276.293 141.459C273.845 141.969 271.601 142.173 269.561 142.071C265.379 141.867 260.942 141.816 256.25 141.918C251.558 142.122 247.121 142.275 242.939 142.377C241.511 142.377 239.981 142.377 238.349 142.377C236.819 142.479 235.34 142.377 233.912 142.071C232.484 141.867 231.107 141.408 229.781 140.694C228.557 139.98 227.486 138.858 226.568 137.328C225.344 135.39 225.038 133.452 225.65 131.514C226.364 129.474 227.18 127.587 228.098 125.853C229.526 123.303 231.209 120.804 233.147 118.356C235.187 115.908 236.921 113.817 238.349 112.083L257.474 86.991L242.021 87.45C240.797 87.45 239.471 87.45 238.043 87.45C236.717 87.45 235.34 87.348 233.912 87.144C232.484 86.838 231.158 86.481 229.934 86.073C228.71 85.665 227.639 85.053 226.721 84.237C225.803 83.319 225.14 82.299 224.732 81.177C224.324 79.953 224.12 78.729 224.12 77.505C224.222 76.281 224.477 75.108 224.885 73.986C225.395 72.762 226.058 71.691 226.874 70.773C227.486 70.161 228.251 69.651 229.169 69.243C230.189 68.835 231.311 68.529 232.535 68.325C233.759 68.121 234.983 68.019 236.207 68.019C237.533 67.917 238.757 67.866 239.879 67.866C242.123 67.866 244.622 67.866 247.376 67.866C250.13 67.866 252.782 67.866 255.332 67.866C257.984 67.764 260.432 67.713 262.676 67.713C265.022 67.611 266.909 67.56 268.337 67.56C270.173 67.56 272.009 67.509 273.845 67.407C275.681 67.305 277.415 67.458 279.047 67.866C280.679 68.274 282.056 69.039 283.178 70.161C284.402 71.181 285.167 72.864 285.473 75.21C285.677 76.74 285.575 78.27 285.167 79.8C284.861 81.228 284.3 82.656 283.484 84.084C282.77 85.41 281.903 86.787 280.883 88.215C279.863 89.541 278.843 90.816 277.823 92.04L254.108 122.64H266.042Z" fill="#F8D347"/>
</g>
<g filter="url(#filter2_d_8142_110505)">
<path d="M343.469 128.76C343.367 129.27 343.265 129.78 343.163 130.29C343.163 130.698 343.163 131.157 343.163 131.667L342.245 134.88C342.041 135.288 341.888 135.543 341.786 135.645L341.327 136.563C340.817 137.685 339.899 138.603 338.573 139.317C336.125 140.541 333.524 140.847 330.77 140.235C329.036 140.031 327.659 139.521 326.639 138.705C325.619 137.991 324.905 137.124 324.497 136.104C324.089 135.084 323.783 134.064 323.579 133.044C323.273 132.024 323.12 131.106 323.12 130.29V44.61C323.12 43.896 323.12 43.284 323.12 42.774C323.222 42.162 323.324 41.601 323.426 41.091C323.528 40.377 323.63 39.765 323.732 39.255C323.936 38.745 324.14 38.184 324.344 37.572C324.65 36.552 325.211 35.736 326.027 35.124C327.251 34.206 328.424 33.696 329.546 33.594C330.26 33.39 330.923 33.288 331.535 33.288C332.147 33.186 332.861 33.135 333.677 33.135C335.105 33.135 336.737 33.543 338.573 34.359C340.001 35.175 341.021 36.297 341.633 37.725C342.653 39.765 343.163 41.652 343.163 43.386C343.265 44.406 343.316 45.936 343.316 47.976C343.418 50.016 343.469 51.546 343.469 52.566V53.178C343.673 56.442 343.775 59.604 343.775 62.664C343.775 65.622 343.724 68.886 343.622 72.456C343.622 75.924 343.571 79.29 343.469 82.554C343.469 85.716 343.469 88.878 343.469 92.04V124.17C343.469 124.578 343.469 124.986 343.469 125.394C343.571 125.7 343.622 126.057 343.622 126.465C343.622 127.485 343.571 128.25 343.469 128.76Z" fill="#00ADD1"/>
</g>
<g filter="url(#filter3_d_8142_110505)">
<path d="M398.021 76.587C401.081 75.057 404.294 73.986 407.66 73.374C411.026 72.66 414.341 72.507 417.605 72.915C420.971 73.221 424.184 74.088 427.244 75.516C430.304 76.842 433.16 78.78 435.812 81.33C438.464 83.982 440.504 86.889 441.932 90.051C443.36 93.213 444.38 96.732 444.992 100.608C445.4 103.26 446.063 105.708 446.981 107.952C447.899 110.196 448.868 112.44 449.888 114.684C451.01 116.928 452.03 119.172 452.948 121.416C453.968 123.66 454.784 126.006 455.396 128.454C455.906 130.8 455.702 133.095 454.784 135.339C453.968 137.481 452.234 138.807 449.582 139.317C448.052 139.623 446.573 139.521 445.145 139.011C443.819 138.399 442.595 137.583 441.473 136.563C440.351 135.441 439.331 134.268 438.413 133.044C437.597 131.718 436.832 130.494 436.118 129.372C433.772 132.432 431.222 134.829 428.468 136.563C425.714 138.195 422.399 139.266 418.523 139.776C415.259 140.184 412.148 140.286 409.19 140.082C406.232 139.878 403.07 139.317 399.704 138.399C395.318 137.277 391.697 135.339 388.841 132.585C386.087 129.729 383.945 126.465 382.415 122.793C380.987 119.019 380.222 114.99 380.12 110.706C380.018 106.422 380.528 102.189 381.65 98.007C383.078 92.499 385.22 88.011 388.076 84.543C390.932 81.075 394.247 78.423 398.021 76.587ZM401.846 94.488C400.418 95.916 399.296 97.599 398.48 99.537C397.664 101.475 397.154 103.515 396.95 105.657C396.848 107.799 397.052 109.941 397.562 112.083C398.072 114.225 398.888 116.112 400.01 117.744C401.03 119.172 402.764 120.396 405.212 121.416C407.66 122.334 410.21 122.895 412.862 123.099C415.922 123.303 418.574 122.487 420.818 120.651C423.164 118.815 424.898 116.52 426.02 113.766C427.244 110.91 427.805 107.901 427.703 104.739C427.601 101.475 426.734 98.517 425.102 95.865C423.878 93.927 422.246 92.499 420.206 91.581C418.268 90.663 416.177 90.204 413.933 90.204C411.689 90.102 409.445 90.459 407.201 91.275C405.059 91.989 403.274 93.06 401.846 94.488Z" fill="#65B741"/>
</g>
<defs>
<filter id="filter0_d_8142_110505" x="5.12" y="66.795" width="58.834" height="76.817" filterUnits="userSpaceOnUse" color-interpolation-filters="sRGB">
<feFlood flood-opacity="0" result="BackgroundImageFix"/>
<feColorMatrix in="SourceAlpha" type="matrix" values="0 0 0 0 0 0 0 0 0 0 0 0 0 0 0 0 0 0 127 0" result="hardAlpha"/>
<feOffset dx="-1" dy="2"/>
<feComposite in2="hardAlpha" operator="out"/>
<feColorMatrix type="matrix" values="0 0 0 0 0.603846 0 0 0 0 0.382597 0 0 0 0 0.364049 0 0 0 1 0"/>
<feBlend mode="normal" in2="BackgroundImageFix" result="effect1_dropShadow_8142_110505"/>
<feBlend mode="normal" in="SourceGraphic" in2="effect1_dropShadow_8142_110505" result="shape"/>
</filter>
<filter id="filter1_d_8142_110505" x="223.12" y="67.254" width="63.8831" height="77.276" filterUnits="userSpaceOnUse" color-interpolation-filters="sRGB">
<feFlood flood-opacity="0" result="BackgroundImageFix"/>
<feColorMatrix in="SourceAlpha" type="matrix" values="0 0 0 0 0 0 0 0 0 0 0 0 0 0 0 0 0 0 127 0" result="hardAlpha"/>
<feOffset dx="-1" dy="2"/>
<feComposite in2="hardAlpha" operator="out"/>
<feColorMatrix type="matrix" values="0 0 0 0 0.684615 0 0 0 0 0.647664 0 0 0 0 0.407478 0 0 0 1 0"/>
<feBlend mode="normal" in2="BackgroundImageFix" result="effect1_dropShadow_8142_110505"/>
<feBlend mode="normal" in="SourceGraphic" in2="effect1_dropShadow_8142_110505" result="shape"/>
</filter>
<filter id="filter2_d_8142_110505" x="322.12" y="33.135" width="21.655" height="110.018" filterUnits="userSpaceOnUse" color-interpolation-filters="sRGB">
<feFlood flood-opacity="0" result="BackgroundImageFix"/>
<feColorMatrix in="SourceAlpha" type="matrix" values="0 0 0 0 0 0 0 0 0 0 0 0 0 0 0 0 0 0 127 0" result="hardAlpha"/>
<feOffset dx="-1" dy="2"/>
<feComposite in2="hardAlpha" operator="out"/>
<feColorMatrix type="matrix" values="0 0 0 0 0.227689 0 0 0 0 0.492279 0 0 0 0 0.618269 0 0 0 1 0"/>
<feBlend mode="normal" in2="BackgroundImageFix" result="effect1_dropShadow_8142_110505"/>
<feBlend mode="normal" in="SourceGraphic" in2="effect1_dropShadow_8142_110505" result="shape"/>
</filter>
<filter id="filter3_d_8142_110505" x="378.967" y="72.303" width="77.194" height="70.085" filterUnits="userSpaceOnUse" color-interpolation-filters="sRGB">
<feFlood flood-opacity="0" result="BackgroundImageFix"/>
<feColorMatrix in="SourceAlpha" type="matrix" values="0 0 0 0 0 0 0 0 0 0 0 0 0 0 0 0 0 0 127 0" result="hardAlpha"/>
<feOffset dx="-1" dy="2"/>
<feComposite in2="hardAlpha" operator="out"/>
<feColorMatrix type="matrix" values="0 0 0 0 0.317647 0 0 0 0 0.572549 0 0 0 0 0.203922 0 0 0 1 0"/>
<feBlend mode="normal" in2="BackgroundImageFix" result="effect1_dropShadow_8142_110505"/>
<feBlend mode="normal" in="SourceGraphic" in2="effect1_dropShadow_8142_110505" result="shape"/>
</filter>
</defs>
</svg>
